<svg width="192" height="143" viewBox="0 0 192 143" fill="none" xmlns="http://www.w3.org/2000/svg">
<g clip-path="url(#clip0_1_537)">
<path d="M74.2821 99.9347H74.2379C74.0095 99.9361 73.7813 99.9217 73.555 99.8915C72.1695 99.7245 70.8931 99.0553 69.9672 98.0105C69.0413 96.9657 68.53 95.6177 68.53 94.2212C68.53 92.8248 69.0413 91.4768 69.9672 90.432C70.8931 89.3872 72.1695 88.718 73.555 88.551V76.5844H53.8317V105.729H67.2808C67.3887 105.397 67.4879 105.058 67.6044 104.726C68.0931 103.317 69.2765 102.665 70.46 102.665C72.0069 102.665 73.5528 103.774 73.5528 105.729H78.1614V103.803C78.1594 102.776 77.7496 101.791 77.0222 101.065C76.2947 100.34 75.3091 99.9333 74.2821 99.9347ZM68.4081 87.9994L68.1018 88.4128L68.064 88.4571C65.2265 92.1963 63.6915 96.7628 63.6939 101.458V103.456C62.6234 103.456 61.5743 103.155 60.6665 102.588C59.7587 102.02 59.0287 101.208 58.5598 100.245C58.091 99.2824 57.9021 98.207 58.0149 97.1418C58.1276 96.0766 58.5374 95.0646 59.1975 94.2212L59.2849 94.1133C60.7104 92.2434 61.8164 90.1501 62.5579 87.9184C63.308 85.6925 63.691 83.3591 63.6917 81.01V79.0671C64.7299 79.067 65.7484 79.3502 66.6377 79.8861C67.5271 80.422 68.2536 81.1904 68.7391 82.1086C69.2246 83.0268 69.4507 84.06 69.3932 85.0972C69.3356 86.1344 68.9965 87.1363 68.4124 87.9951L68.4081 87.9994Z" fill="#FC3314"/>
<path d="M10.3555 0.666626H0.95929V28.9986H10.3555V23.7611C10.3555 23.7611 6.98643 22.2197 5.79114 17.2845C5.79114 17.2845 10.7622 15.8564 13.4429 21.9466C13.3857 24.0763 13.0039 26.4198 12.1656 29.0007H19.7484C19.7484 29.0007 23.6363 13.1535 10.3555 0.666626ZM5.50958 15.6978H5.50311C5.2086 13.336 5.38983 10.3405 6.46754 6.57545C6.46754 6.57545 8.48917 7.97224 10.3511 10.8101C11.7873 12.9775 12.7511 15.4234 13.1797 17.9883C13.0168 17.8156 9.92394 14.5255 5.50958 15.6978Z" fill="#FC3314"/>
<path d="M49.1337 9.52663V5.97421C49.134 5.27722 48.9971 4.587 48.7307 3.943C48.4643 3.299 48.0736 2.71383 47.5811 2.22093C47.0886 1.72803 46.5039 1.33707 45.8604 1.07037C45.2168 0.803679 44.527 0.666484 43.8305 0.666626H29.2723V28.9986H43.8359C44.5323 28.9987 45.222 28.8616 45.8655 28.5949C46.509 28.3283 47.0937 27.9374 47.5862 27.4446C48.0786 26.9519 48.4693 26.3668 48.7357 25.7229C49.0022 25.0791 49.1393 24.389 49.1391 23.6921V20.1396C49.1393 19.4427 49.0022 18.7526 48.7357 18.1088C48.4693 17.4649 48.0786 16.8798 47.5862 16.3871C47.0937 15.8943 46.509 15.5034 45.8655 15.2368C45.222 14.9702 44.5323 14.833 43.8359 14.8331C45.2415 14.832 46.5892 14.2724 47.5827 13.2773C48.5761 12.2822 49.134 10.9332 49.1337 9.52663ZM45.3084 20.5908V21.0917C45.309 21.2837 45.2716 21.4738 45.1984 21.6513C45.1253 21.8287 45.0178 21.99 44.8822 22.1257C44.7465 22.2614 44.5854 22.369 44.408 22.4422C44.2307 22.5154 44.0406 22.5528 43.8488 22.5522C43.1813 22.5522 42.5412 22.8175 42.0692 23.2898C41.5972 23.7621 41.332 24.4026 41.332 25.0705V26.7976H38.8023V17.671H42.3903C42.7737 17.6703 43.1535 17.7453 43.5078 17.8918C43.8622 18.0383 44.1842 18.2533 44.4553 18.5246C44.7264 18.7959 44.9413 19.118 45.0877 19.4726C45.2341 19.8272 45.3091 20.2072 45.3084 20.5908ZM45.3084 9.71446C45.3064 10.4877 44.9981 11.2287 44.4512 11.775C43.9042 12.3213 43.1631 12.6284 42.3903 12.6289H38.8023V5.39671L41.332 2.86652V5.2348C41.3323 5.90261 41.5975 6.54299 42.0695 7.0152C42.5414 7.48742 43.1814 7.75283 43.8488 7.75312C44.0405 7.75255 44.2305 7.7899 44.4078 7.86303C44.5851 7.93616 44.7461 8.04361 44.8818 8.17923C45.0174 8.31485 45.1249 8.47595 45.1981 8.65328C45.2713 8.8306 45.3088 9.02066 45.3084 9.21252V9.71446Z" fill="#FC3314"/>
<path d="M11.6082 39.4873V44.267C14.1426 46.7336 15.8305 49.9406 16.4293 53.4271C15.7746 53.5795 15.1045 53.6552 14.4324 53.6527C12.4335 53.6529 10.4907 52.9911 8.90707 51.7705C7.32346 50.5499 6.18812 48.8392 5.67814 46.9052C6.37415 44.1271 7.76902 41.5735 9.73003 39.4873H0.5V67.8193H10.2489V63.0384C7.9435 60.7951 6.33299 57.9345 5.61018 54.7991C7.69596 54.2126 9.92278 54.3939 11.8863 55.3101C13.8499 56.2264 15.42 57.8168 16.3117 59.7926C15.6773 62.8018 14.2282 65.5786 12.1228 67.8193H21.3517V39.4873H11.6082Z" fill="#FC3314"/>
<path d="M98.5558 0.666626H86.0085V28.9986H98.5558C99.4689 28.9984 100.373 28.8183 101.217 28.4684C102.06 28.1185 102.827 27.6057 103.472 26.9593C104.118 26.313 104.629 25.5457 104.979 24.7014C105.328 23.857 105.507 22.9521 105.506 22.0384V7.62575C105.507 6.71215 105.327 5.80744 104.978 4.96327C104.629 4.1191 104.117 3.35201 103.471 2.7058C102.826 2.05959 102.06 1.5469 101.216 1.19702C100.373 0.847136 99.4688 0.666909 98.5558 0.666626ZM101.192 14.9659C101.194 16.2905 100.71 17.5697 99.833 18.5615C98.8438 19.6895 98.2429 21.1057 98.2429 22.6094V26.8008H95.7617V5.16571C96.6251 5.16314 97.4764 5.36941 98.2429 5.76696C99.1323 6.22284 99.8785 6.91586 100.399 7.76945C100.919 8.62304 101.194 9.60398 101.192 10.6039V14.9659Z" fill="#FC3314"/>
<path d="M76.6025 6.24083V0.666626H57.63V28.9986H76.6025V14.8331H73.885C73.2809 14.833 72.6826 14.9519 72.1244 15.1832C71.5662 15.4144 71.059 15.7534 70.6317 16.1809C70.2045 16.6083 69.8655 17.1157 69.6343 17.6742C69.4031 18.2327 69.2841 18.8313 69.2841 19.4358L70.8753 23.4935C71.0197 23.861 71.0723 24.2584 71.0283 24.6509C70.9843 25.0434 70.8451 25.4193 70.6229 25.7457C70.4006 26.0721 70.102 26.3393 69.7531 26.5239C69.4041 26.7086 69.0154 26.8051 68.6206 26.8052H67.3811V2.86652H69.283V10.4226L76.6025 6.24083Z" fill="#FC3314"/>
<path d="M125.516 83.6697V83.4182C125.516 83.2854 125.509 83.1461 125.496 83.0145C125.244 80.2079 121.005 80.5015 121.005 83.3124V86.5733C121.005 86.9312 121.09 87.284 121.254 87.6022C121.417 87.9205 121.654 88.195 121.945 88.403C125.727 91.0746 128.52 94.9225 129.888 99.3474L123.515 105.725H110.689V95.8155H113.194C113.943 95.816 114.66 96.1137 115.189 96.6432C115.718 97.1726 116.016 97.8905 116.016 98.6393V98.8908C116.016 99.03 116.023 99.1628 116.036 99.3021C116.287 102.099 120.52 101.807 120.52 98.9966V95.7356C120.522 95.3792 120.437 95.0278 120.275 94.7106C120.113 94.3934 119.877 94.1197 119.587 93.9124C115.736 91.1866 112.911 87.2464 111.564 82.723L117.698 76.5853H130.836V86.4956H128.338C127.967 86.4958 127.6 86.4228 127.258 86.2808C126.915 86.1388 126.604 85.9306 126.342 85.6681C126.08 85.4056 125.872 85.094 125.73 84.7511C125.588 84.4082 125.516 84.0407 125.516 83.6697Z" fill="#FC3314"/>
<path d="M131.198 10.0329H133.563V0.666626H114.521V28.9986H133.563V19.6323H131.198C130.848 19.6323 130.5 19.7015 130.177 19.8359C129.853 19.9704 129.558 20.1674 129.311 20.4158C129.063 20.6641 128.867 20.9589 128.733 21.2833C128.599 21.6076 128.531 21.9552 128.532 22.3061V22.5425C128.532 23.673 128.083 24.7572 127.284 25.5566C126.485 26.3561 125.401 26.8052 124.271 26.8052V16.6034H132.657V14.4046C132.657 13.8214 132.425 13.2622 132.013 12.8498C131.601 12.4375 131.042 12.2058 130.459 12.2058H129.622C129.333 12.206 129.047 12.2633 128.78 12.3745C128.514 12.4856 128.271 12.6484 128.068 12.8535C127.138 13.785 125.946 14.4089 124.63 14.4089H124.271V2.86652C125.401 2.86652 126.485 3.31562 127.284 4.11503C128.083 4.91444 128.532 5.99867 128.532 7.12921V7.36452C128.531 7.71498 128.6 8.06203 128.734 8.38583C128.868 8.70964 129.065 9.00385 129.312 9.25166C129.56 9.49947 129.854 9.69601 130.178 9.83006C130.501 9.96411 130.848 10.033 131.198 10.0329Z" fill="#FC3314"/>
<path d="M159.475 10.0329H161.84V0.666626H142.8V28.9986H152.55V26.8753C152.549 26.6641 152.465 26.4617 152.316 26.3123C152.167 26.163 151.965 26.079 151.754 26.0787C149.243 26.0787 147.033 24.1929 146.857 21.6811C146.811 21.0324 146.899 20.3811 147.115 19.7679C147.332 19.1546 147.672 18.5925 148.115 18.1166C148.558 17.6407 149.094 17.2611 149.69 17.0015C150.286 16.7419 150.929 16.6079 151.579 16.6077H152.55H160.935V14.4046C160.935 14.1158 160.878 13.8297 160.768 13.5629C160.657 13.2961 160.495 13.0536 160.291 12.8494C160.087 12.6452 159.844 12.4833 159.578 12.3729C159.311 12.2624 159.025 12.2056 158.736 12.2058H157.899C157.611 12.206 157.325 12.2634 157.058 12.3745C156.791 12.4857 156.549 12.6484 156.346 12.8535C155.415 13.785 154.224 14.4089 152.908 14.4089H152.55V8.65553C152.55 3.37385 148.203 2.86652 148.203 2.86652H152.549C153.678 2.86652 154.762 3.31562 155.561 4.11503C156.36 4.91444 156.809 5.99867 156.809 7.12921V7.36452C156.809 8.07222 157.09 8.75093 157.59 9.25134C158.09 9.75176 158.768 10.0329 159.475 10.0329Z" fill="#FC3314"/>
<path d="M187.954 10.0329H190.319V0.666626H171.277V28.9986H190.319V15.6049H182.167V17.5771C182.167 18.496 182.532 19.3774 183.182 20.0272C183.831 20.677 184.712 21.042 185.63 21.042C186.393 21.042 187.125 21.3454 187.665 21.8852C188.204 22.4251 188.507 23.1574 188.507 23.9209C188.507 24.6844 188.204 25.4167 187.665 25.9566C187.125 26.4965 186.393 26.7998 185.63 26.7998H181.027V2.86652C182.157 2.86652 183.241 3.31562 184.04 4.11503C184.838 4.91444 185.287 5.99867 185.287 7.12921V7.36452C185.287 8.07222 185.568 8.75093 186.068 9.25134C186.568 9.75176 187.247 10.0329 187.954 10.0329Z" fill="#FC3314"/>
<path d="M43.6795 39.4873H31.4213V45.3163C31.4213 45.9813 31.6854 46.6191 32.1553 47.0893C32.6253 47.5596 33.2627 47.8238 33.9273 47.8238V67.8193H46.3149C42.3904 64.3402 39.5186 60.4791 39.5186 53.9787C39.5197 45.9779 41.3785 39.4873 43.6795 39.4873Z" fill="#FC3314"/>
<path d="M123.749 67.8193H104.77V39.4873H110.519C111.045 39.4873 111.566 39.591 112.052 39.7926C112.537 39.9941 112.979 40.2895 113.35 40.6618C113.722 41.0342 114.016 41.4762 114.217 41.9625C114.418 42.4489 114.521 42.9701 114.52 43.4963V65.6248H116.686V60.8515C116.686 60.3529 116.784 59.8591 116.975 59.3983C117.165 58.9376 117.445 58.519 117.797 58.1664C118.149 57.8138 118.568 57.5342 119.028 57.3435C119.489 57.1528 119.982 57.0548 120.481 57.0551H123.749C122.929 57.0551 122.266 59.4666 122.266 62.4372C122.266 65.4078 122.929 67.8193 123.749 67.8193Z" fill="#FC3314"/>
<path d="M57.63 39.4873V65.6194H54.2955C53.7615 65.6195 53.2327 65.5144 52.7394 65.31C52.246 65.1056 51.7977 64.8059 51.4201 64.4281C51.0425 64.0503 50.7431 63.6017 50.5388 63.108C50.3345 62.6144 50.2294 62.0853 50.2296 61.551V60.0646C50.2296 59.4442 50.4759 58.8492 50.9143 58.4106C51.3527 57.9719 51.9473 57.7254 52.5673 57.7254H54.631V53.969C54.6317 53.44 54.5282 52.9161 54.3263 52.4271C54.1244 51.9382 53.8282 51.4939 53.4546 51.1196C53.081 50.7454 52.6372 50.4485 52.1488 50.246C51.6604 50.0435 51.1369 49.9393 50.6082 49.9395H47.9253V67.8149H67.3811V39.4873H57.63Z" fill="#FC3314"/>
<path d="M88.3112 51.686C90.1657 51.686 93.4257 51.686 93.4257 48.3279V43.5449C93.4257 42.7446 93.6215 41.9564 93.9959 41.2491C94.3702 40.5418 94.9119 39.937 95.5736 39.4873H88.3112V47.5269C88.3112 48.0466 88.105 48.5451 87.7378 48.9127C87.3707 49.2803 86.8726 49.4869 86.3533 49.4872V39.4873H76.6022V67.8193H86.3533V53.0623C92.1323 58.8459 89.184 67.8193 89.184 67.8193H95.5736C95.5736 55.9584 88.3112 51.686 88.3112 51.686Z" fill="#FC3314"/>
<path d="M147.674 38.0581C147.674 43.8536 146.742 49.8067 143.309 52.4923V44.6999C143.309 42.9387 142.61 41.2496 141.365 40.0042C140.121 38.7588 138.433 38.0592 136.672 38.0592H133.563V67.8192H143.313V66.811C143.315 65.2886 142.959 63.7871 142.275 62.4271C141.591 61.0672 140.598 59.8868 139.375 58.9808C138.445 58.2869 137.69 57.3851 137.17 56.3474C136.65 55.3096 136.38 54.1647 136.381 53.004V42.0866H137.82C138.296 42.0867 138.765 42.1978 139.19 42.4113C139.615 42.6247 139.984 42.9345 140.269 43.3159C140.553 43.6974 140.744 44.14 140.828 44.6085C140.911 45.077 140.884 45.5585 140.748 46.0146L139.729 49.4494C139.221 51.1556 138.964 52.9262 138.964 54.7062C138.964 55.3288 139.211 55.9259 139.651 56.3664C140.09 56.8068 140.687 57.0545 141.309 57.0551H145.334L150.371 46.2154C150.371 46.2154 151.072 60.4262 145.336 67.8192H152.55V38.0581H147.674Z" fill="#FC3314"/>
<path d="M181.116 38.1984V39.4862C181.116 39.4862 192.358 44.9168 185.647 61.3566C185.647 61.3566 184.519 41.2144 173.211 38.0581H170.104V67.8149H180.073C180.073 63.1012 178.351 58.55 175.231 55.0182C173.931 53.5445 173.213 51.6471 173.211 49.6815V42.4913C173.211 42.4913 175.287 48.6161 178.928 52.7935C182.252 56.6136 183.898 62.6951 183.794 67.7599V67.8775H191.51V38.1984H181.116Z" fill="#FC3314"/>
<path d="M5.44051 76.3523L0.881592 80.9194V105.154H15.8464L20.4043 100.592V76.3523H5.44051ZM15.8777 90.7498C14.2972 91.589 12.9748 92.8431 12.0527 94.3774C11.1305 95.9117 10.6434 97.6683 10.6435 99.4587V99.7663C10.6435 100.11 10.5758 100.451 10.4442 100.768C10.3127 101.086 10.12 101.375 9.87693 101.618C9.63391 101.861 9.3454 102.054 9.02787 102.186C8.71035 102.317 8.37003 102.385 8.02635 102.385C7.68266 102.385 7.34234 102.317 7.02482 102.186C6.7073 102.054 6.41879 101.861 6.17576 101.618C5.93274 101.375 5.73997 101.086 5.60844 100.768C5.47692 100.451 5.40923 100.11 5.40923 99.7663V90.7498C6.95355 90.1335 8.27775 89.0681 9.2108 87.6912C10.1438 86.3142 10.6429 84.689 10.6435 83.0254V81.73C10.6435 81.0355 10.9192 80.3694 11.41 79.8783C11.9008 79.3872 12.5665 79.1113 13.2606 79.1113C13.9547 79.1113 14.6204 79.3872 15.1112 79.8783C15.602 80.3694 15.8777 81.0355 15.8777 81.73V90.7498Z" fill="#FC3314"/>
<path d="M43.1981 76.5844H29.1157V81.5498C29.1153 82.2776 29.3609 82.9842 29.8127 83.5546C30.2645 84.125 30.8959 84.5256 31.6042 84.6914C32.3124 84.8572 33.0559 84.7783 33.7137 84.4675C34.3715 84.1568 34.9048 83.6325 35.227 82.98L36.5496 80.3041C36.9028 79.5907 37.4482 78.9903 38.1243 78.5707C38.8005 78.151 39.5804 77.9289 40.376 77.9293C40.8387 77.9298 41.2969 78.0214 41.7242 78.199C42.1515 78.3767 42.5396 78.6368 42.8664 78.9646C43.1932 79.2924 43.4523 79.6815 43.6287 80.1095C43.8052 80.5375 43.8957 80.9961 43.895 81.4591V81.5778C43.895 82.2233 43.7679 82.8625 43.521 83.4588C43.2741 84.0552 42.9122 84.597 42.456 85.0534C41.9998 85.5098 41.4582 85.8718 40.8622 86.1187C40.2662 86.3656 39.6273 86.4926 38.9822 86.4925H29.1157C38.5766 95.9602 29.1157 105.152 29.1157 105.152H37.7255V94.0453H43.1981C44.5589 94.0442 45.8636 93.5022 46.8252 92.5387C47.7867 91.5751 48.3264 90.2689 48.3255 88.9072V81.7203C48.3258 80.359 47.7859 79.0533 46.8244 78.0902C45.8629 77.1272 44.5586 76.5855 43.1981 76.5844Z" fill="#FC3314"/>
<path d="M81.2108 98.3698V98.3621" stroke="#1F1F1F" stroke-width="0.62623" stroke-miterlimit="10"/>
<path d="M102.79 85.0687V80.8395C102.79 80.2806 102.68 79.7272 102.466 79.2108C102.253 78.6944 101.94 78.2252 101.545 77.83C101.15 77.4348 100.681 77.1214 100.165 76.9077C99.6486 76.6939 99.0955 76.5841 98.537 76.5844H83.6693V105.729H93.5066V93.3793C98.1454 99.8829 94.9403 105.725 94.9403 105.725H102.79C102.79 94.0367 96.346 90.2586 94.1981 89.3238H98.537C99.0955 89.3241 99.6486 89.2143 100.165 89.0005C100.681 88.7868 101.15 88.4734 101.545 88.0782C101.94 87.683 102.253 87.2138 102.466 86.6974C102.68 86.181 102.79 85.6276 102.79 85.0687ZM98.1389 81.7365C97.3687 82.0905 96.3449 82.8494 96.3449 84.3984V86.9405H94.0428V78.9613H97.5326C97.8641 78.9614 98.1855 79.0748 98.4436 79.2828C98.7018 79.4908 98.8811 79.7808 98.9519 80.1048C99.0226 80.4287 98.9806 80.7672 98.8327 81.064C98.6849 81.3608 98.4401 81.598 98.1389 81.7365Z" fill="#FC3314"/>
<path d="M159.504 76.1894V80.9572L156.448 84.0142C155.62 84.8432 154.175 84.7018 153.632 83.6645C153.499 83.4134 153.43 83.1336 153.43 82.8495V78.1378H152.39V105.725H144.329V104.559C144.329 99.7308 145.389 94.9931 147.125 90.4887C147.612 89.2214 147.968 87.3842 147.968 84.7212V78.1367H142.466V79.1578C143.544 79.5562 144.475 80.2754 145.132 81.2188C145.789 82.1621 146.141 83.2842 146.142 84.4341V84.65C146.142 86.1428 145.55 87.5746 144.496 88.6308C143.441 89.687 142.011 90.2811 140.519 90.2825V76.1851L159.504 76.1894Z" fill="#FC3314"/>
<path d="M182.339 76.1894V78.3385C183.551 78.3389 184.723 78.7682 185.649 79.5506C186.575 80.333 187.194 81.4179 187.398 82.6133C187.601 83.8087 187.375 85.0375 186.759 86.0821C186.144 87.1268 185.179 87.9199 184.036 88.3211C183.632 88.4496 183.243 88.6215 182.876 88.8339C181.232 89.8507 177.461 93.1657 177.461 102.166H174.913V99.3595C174.913 96.8429 175.677 94.3859 177.105 92.314L179.362 89.0379C180.209 87.8068 180.703 86.3679 180.792 84.8764C180.88 83.3848 180.56 81.8974 179.866 80.5745C179.172 79.2517 178.13 78.1437 176.852 77.3701C175.575 76.5965 174.11 76.1868 172.617 76.1851H171.061V105.725H184.255C184.083 105.015 183.997 104.287 183.998 103.556C183.997 101.557 184.629 99.6088 185.803 97.9913C186.978 96.3737 188.634 95.17 190.534 94.5527V76.1894H182.339Z" fill="#FC3314"/>
<path d="M17.0648 114.403H12.3689C12.3689 117.55 13.3992 120.627 15.3895 123.067C16.4895 124.401 17.0846 126.08 17.0702 127.81V141.438H15.2363L9.27822 114.403H1.28339L6.35365 137.446C6.68369 138.946 7.51609 140.289 8.7129 141.251C9.90971 142.212 11.3991 142.736 12.9342 142.735H20.3994V114.403H17.0648Z" fill="#FC3314"/>
<path d="M46.9857 114.403H40.4116V114.775C40.4116 118.445 41.7655 121.957 44.1086 124.782C45.6049 126.586 46.9857 128.901 46.9857 131.301V139.223C46.9857 139.223 40.7806 134.725 40.7806 125.159H40.6446C40.1823 125.159 39.7244 125.25 39.2972 125.427C38.87 125.604 38.4819 125.863 38.1549 126.19C37.8279 126.517 37.5685 126.906 37.3916 127.333C37.2146 127.76 37.1235 128.218 37.1235 128.681C37.1235 130.402 37.5399 132.098 38.3371 133.623C39.0386 134.964 39.4051 136.456 39.4051 137.97V140.766H38.0599C36.377 135.431 32.4869 120.643 38.7169 114.401H29.1157C29.1157 114.401 36.7923 135.052 29.1157 142.733H41.0826V131.772L44.3686 142.733H49.3968V114.403H46.9857Z" fill="#FC3314"/>
<path d="M69.7158 130.166L75.3514 142.822H70.2412L70.2229 142.778C71.4689 142.089 72.6145 135.291 67.4364 135.291L65.6521 139.294C66.0588 138.374 67.4364 138.667 67.4364 139.67V142.822H57.5958L60.7026 135.66C62.0577 132.535 62.718 129.154 62.638 125.749C62.3825 125.177 61.9656 124.693 61.4387 124.356C60.9118 124.018 60.2979 123.843 59.6724 123.85C58.5365 123.871 57.6281 122.896 57.6281 121.758V119.599C57.6293 118.243 58.1685 116.943 59.1272 115.985C60.0858 115.027 61.3855 114.489 62.7405 114.49C62.7405 125.784 65.0242 125.976 66.308 125.19C66.7883 124.883 67.1644 124.438 67.3868 123.912L69.7061 118.706C71.2164 115.323 67.828 114.49 67.828 114.49H76.6902L69.7158 130.166Z" fill="#FC3314"/>
<path d="M98.5092 114.401H95.3376V114.775C95.3404 116.284 95.7669 117.762 96.5685 119.041C95.7432 121.014 94.8629 123.118 94.3861 124.254C94.2842 124.498 94.1167 124.708 93.9024 124.862C93.688 125.016 93.4352 125.107 93.172 125.126C92.9089 125.144 92.6458 125.089 92.412 124.967C92.1782 124.845 91.9828 124.66 91.8477 124.434C91.0753 123.138 90.4583 120.268 90.4583 114.401C89.1032 114.402 87.8036 114.94 86.8455 115.899C85.8874 116.858 85.3492 118.159 85.3492 119.515V124.529C86.6556 123.5 88.1249 123.593 89.181 124.28C89.6997 124.615 90.1092 125.094 90.359 125.659C90.9222 126.924 91.2211 128.291 91.2374 129.676C91.2538 131.061 90.9872 132.435 90.454 133.714L86.6556 142.82H96.494L108.348 114.399L98.5092 114.401Z" fill="#FC3314"/>
<path d="M117.666 138.346C121.585 125.559 133.564 125.058 133.564 125.058V132.748C133.565 133.095 133.474 133.436 133.299 133.735C133.124 134.035 132.872 134.282 132.569 134.452C132.266 134.621 131.924 134.706 131.577 134.698C131.23 134.69 130.892 134.589 130.597 134.406C130.01 134.043 129.352 133.811 128.668 133.725C127.984 133.638 127.289 133.699 126.63 133.904C125.971 134.108 125.364 134.451 124.849 134.91C124.334 135.369 123.923 135.933 123.644 136.564L120.884 142.815H114.519V133.41L125.882 116.801H121.998C121.998 118.104 121.587 119.374 120.823 120.429C120.059 121.484 118.981 122.271 117.744 122.676L114.315 123.8V114.49H133.569V120.467C130.488 121.313 128.003 122.518 126 123.921C117.86 129.589 117.666 138.346 117.666 138.346Z" fill="#FC3314"/>
</g>
<defs>
<clipPath id="clip0_1_537">
<rect width="191" height="142.154" fill="white" transform="translate(0.5 0.666504)"/>
</clipPath>
</defs>
</svg>
